<?xml version="1.0" encoding="utf-8"?>
<!-- Generator: Adobe Illustrator 19.1.0, SVG Export Plug-In . SVG Version: 6.00 Build 0)  -->
<svg version="1.1" id="Layer_1" xmlns="http://www.w3.org/2000/svg" xmlns:xlink="http://www.w3.org/1999/xlink" x="0px" y="0px"
	 viewBox="0 0 360 360" style="enable-background:new 0 0 360 360;" xml:space="preserve">
<style type="text/css">
	.st0{fill:none;}
	.st1{fill:#001AFF;}
	.st2{fill:#00FF00;}
	.st3{fill:#011A01;}
</style>
<g>
	<polygon class="st0" points="10,213 152.1,213 112.3,144 204.6,144 127.2,9.9 	"/>
	<path class="st1" d="M353.7,144H209.3l40.4,70c0.4,0.6,0.4,1.4,0,2c-0.4,0.6-1,1-1.7,1h-93.5L233,353.1L353.7,144z"/>
	<polygon class="st1" points="152.1,213 244.5,213 204.6,144 112.3,144 	"/>
	<path class="st2" d="M10,213L127.2,9.9L204.6,144h4.6L129,4.9c-0.4-0.6-1-1-1.7-1s-1.4,0.4-1.7,1L4.8,214c-0.4,0.6-0.4,1.4,0,2
		c0.4,0.6,1,1,1.7,1h147.9l-2.3-4H10z"/>
	<path class="st3" d="M249.7,216c0.4-0.6,0.4-1.4,0-2l-40.4-70h-4.6l39.8,69h-92.4l2.3,4H248C248.7,217,249.3,216.6,249.7,216z"/>
</g>
<g id="FYNE8b_1_">
	
		<image style="overflow:visible;" width="90" height="90" id="FYNE8b" xlink:href="C6EE2DF082563A57.jpg"  transform="matrix(1 0 0 1 951 -218)">
	</image>
</g>
</svg>
