<?xml version="1.0" encoding="utf-8"?>
<!-- Generator: Adobe Illustrator 19.1.0, SVG Export Plug-In . SVG Version: 6.00 Build 0)  -->
<svg version="1.1" id="Layer_1" xmlns="http://www.w3.org/2000/svg" xmlns:xlink="http://www.w3.org/1999/xlink" x="0px" y="0px"
	 viewBox="-338 -117.8 289 227.5" style="enable-background:new -338 -117.8 289 227.5;" xml:space="preserve">
<g>
	<path d="M-102.3-5.1c0-27.3-10.4-44.2-26.1-42c-15.9,2.2-26.5,21.9-26.6,49.3c-0.1,27.4,10.5,44.1,26.4,41.9
		C-112.9,41.9-102.3,22.2-102.3-5.1z"/>
	<path d="M-75.2-81.9c-3.8-3.3-7.9-6-12.3-8.3c0,0,0,0,0,0l-4.5-2.4l-32.3-17.6c-0.6-0.4-1.4-0.8-2.1-1.1l0,0c0,0,0,0,0,0
		c-3.7-1.9-7.7-3.3-11.8-4.4c0,0,0,0,0,0c0,0,0,0,0,0c-7.7-2-16.1-2.6-25.1-1.7c-0.1,0-0.2,0-0.2,0c-1.2,0.1-2.4,0.3-3.7,0.4
		c0,0,0,0,0,0c0,0,0,0,0,0c0,0,0,0,0,0c0,0,0,0,0,0c0,0,0,0,0,0c-1.3,0.2-2.6,0.4-3.9,0.6c-0.4,0.1-0.8,0.1-1.1,0.2
		c-1,0.2-1.9,0.4-2.9,0.6c-0.4,0.1-0.8,0.2-1.1,0.3c-1.2,0.3-2.5,0.6-3.7,1c-0.1,0-0.2,0.1-0.3,0.1c-1.1,0.3-2.3,0.7-3.4,1.1
		c-0.5,0.2-0.9,0.3-1.3,0.5c-0.7,0.3-1.5,0.6-2.2,0.8c-0.5,0.2-1,0.4-1.5,0.6c-0.6,0.3-1.2,0.5-1.8,0.8c-4.6,2-8.9,4.5-13,7.3
		c-0.2,0.1-0.4,0.2-0.6,0.3c-3.1,2.2-6.1,4.5-8.7,6.9l0,0l0,0c0,0,0,0,0,0c0,0,0,0,0,0c-2.5,2.3-4.7,4.5-6.7,6.8
		c-0.2,0.1-0.4,0.3-0.5,0.5c-2.6,2.9-4.7,5.6-6.4,8.2c0,0,0,0,0,0c0,0,0,0,0,0c0,0,0,0,0,0c0,0,0,0,0,0c-0.3,0.4-0.5,0.8-0.8,1.2
		c-0.1-0.1-0.2-0.1-0.3-0.2l-13.6-7.4l-24.8-13.6c-0.3-0.2-0.7-0.3-1-0.3c-0.1,0-0.3-0.1-0.6-0.1c-0.6-0.1-1.3-0.2-2.1,0
		c-0.3,0-0.8,0.1-1.4,0.2c0,0,0,0,0,0l-60.5,18.6c-0.5,0.1-1.1,0.3-1.8,0.7c-0.3,0.1-0.6,0.3-1,0.6c-0.4,0.3-0.8,0.6-1,0.8
		c0,0,0,0,0,0l-0.2,0.2c0,0-0.1,0.1-0.1,0.1l-0.1,0.1c0,0,0,0,0,0c0,0,0,0,0,0c-0.2,0.2-0.4,0.4-0.5,0.6c-0.1,0.1-0.2,0.3-0.3,0.4
		c-0.5,0.6-0.7,1.1-0.8,1.4c-0.1,0.2-0.2,0.5-0.2,0.7c-0.1,0.4-0.2,0.8-0.2,1.2c0,0,0,0,0,0c0,0.2,0,0.5,0,0.8c0,0,0,0,0,0
		l-0.1,31.2c0,0,0,0.1,0,0.1c-0.1,2.2,1,4.2,2.9,5.3l16.3,8.8L-319,82c0,0,0,0,0,0s0,0,0,0c0,2.7,1.3,5,3.5,6.1l38.4,20.9
		c0.3,0.1,0.5,0.3,0.8,0.3c0.7,0.3,1.5,0.4,2.3,0.4c0.3,0,0.7,0,1-0.1l41.6-5.8c3.5-0.6,6.2-4,6.2-7.7l0.1-42.8
		c4.5,4.9,9.6,8.9,15.4,12l38.1,20.8c0.1,0,0.2,0.1,0.3,0.1c0,0,0,0,0,0c9.3,5,19.9,7.6,31.4,7.6c3.8,0,7.7-0.3,11.8-0.8
		c47.2-6.7,79-48.9,79.1-105.2C-49-42.4-58.2-67.2-75.2-81.9z M-228.7,96.1c0,2-1.4,4-3.3,4.3l-41.5,5.8c-2.1,0.3-3.5-1.3-3.5-3.3
		l0.2-124.8l-16.2,2.3c-1.6,0.2-3.3-0.6-3-2.6l0.1-31.1c0-2,1.4-3.7,3.8-4.3l60.5-18.6c0.1-0.2,0.3-0.2,0.5-0.2
		c1.7-0.2,2.7,0.6,2.7,2.2L-228.7,96.1z M-128.6,89.6c-45.7,6.4-76.2-25.7-76.1-80.4c0.1-54.6,30.7-95.4,76.4-101.8
		c45.5-6.4,75.9,25.8,75.8,80.4C-52.6,42.5-83.2,83.2-128.6,89.6z"/>
</g>
</svg>
