<?xml version="1.0" encoding="utf-8"?>
<!-- Generator: Adobe Illustrator 19.1.0, SVG Export Plug-In . SVG Version: 6.00 Build 0)  -->
<svg version="1.1" id="Layer_1" xmlns="http://www.w3.org/2000/svg" xmlns:xlink="http://www.w3.org/1999/xlink" x="0px" y="0px"
	 viewBox="17.5 16.3 289 227.5" style="enable-background:new 17.5 16.3 289 227.5;" xml:space="preserve">
<style type="text/css">
	.st0{enable-background:new    ;}
	.st1{clip-path:url(#SVGID_2_);enable-background:new    ;}
	.st2{fill:#0000FF;stroke:#0000FF;stroke-width:6.9666;stroke-linecap:round;stroke-linejoin:round;stroke-miterlimit:10;}
	.st3{clip-path:url(#SVGID_4_);enable-background:new    ;}
	.st4{clip-path:url(#SVGID_6_);enable-background:new    ;}
	.st5{clip-path:url(#SVGID_8_);enable-background:new    ;}
	.st6{fill:none;stroke:#0000FF;stroke-width:6.9666;stroke-linecap:round;stroke-linejoin:round;stroke-miterlimit:10;}
	.st7{clip-path:url(#SVGID_10_);enable-background:new    ;}
	.st8{clip-path:url(#SVGID_12_);enable-background:new    ;}
	.st9{clip-path:url(#SVGID_14_);enable-background:new    ;}
	.st10{clip-path:url(#SVGID_16_);enable-background:new    ;}
	.st11{clip-path:url(#SVGID_18_);enable-background:new    ;}
	.st12{fill:#FFFFFF;stroke:#0000FF;stroke-width:6.9666;stroke-linecap:round;stroke-linejoin:round;stroke-miterlimit:10;}
</style>
<g class="st0">
	<g>
		<defs>
			<path id="SVGID_1_" d="M215.8,176.3l-38.4-20.9c3.3,1.8,7,2.5,11.1,1.9l38.4,20.9C222.8,178.7,219.1,178.1,215.8,176.3z"/>
		</defs>
		<use xlink:href="#SVGID_1_"  style="overflow:visible;fill:#0000FF;"/>
		<clipPath id="SVGID_2_">
			<use xlink:href="#SVGID_1_"  style="overflow:visible;"/>
		</clipPath>
		<g class="st1">
			<path class="st2" d="M215.8,176.3l-38.4-20.9c0.2,0.1,0.4,0.2,0.7,0.3l38.4,20.9C216.2,176.5,216,176.4,215.8,176.3"/>
			<path class="st2" d="M216.4,176.6L178,155.7c1.1,0.5,2.1,0.9,3.3,1.2l38.4,20.9C218.6,177.5,217.5,177.1,216.4,176.6"/>
			<path class="st2" d="M219.7,177.8l-38.4-20.9c2.3,0.6,4.7,0.7,7.2,0.3l38.4,20.9C224.4,178.5,222,178.4,219.7,177.8"/>
		</g>
		
			<use xlink:href="#SVGID_1_"  style="overflow:visible;fill:none;stroke:#0000FF;stroke-width:6.9666;stroke-linecap:round;stroke-linejoin:round;stroke-miterlimit:10;"/>
	</g>
	<g>
		<defs>
			<path id="SVGID_3_" d="M199.6,68L238,88.9c9.5,5.2,15.3,19.6,15.3,40c-0.1,27.3-10.6,47-26.3,49.2l-38.4-20.9
				c15.7-2.2,26.3-21.9,26.3-49.2C214.9,87.6,209.1,73.2,199.6,68z"/>
		</defs>
		<use xlink:href="#SVGID_3_"  style="overflow:visible;fill:#0000FF;"/>
		<clipPath id="SVGID_4_">
			<use xlink:href="#SVGID_3_"  style="overflow:visible;"/>
		</clipPath>
		<g class="st3">
			<path class="st2" d="M226.9,178.2l-38.4-20.9c2.1-0.3,4.1-0.9,5.9-1.8l38.4,20.9C231,177.3,229,177.9,226.9,178.2"/>
			<path class="st2" d="M232.9,176.4l-38.4-20.9c1.1-0.5,2.2-1.2,3.3-1.9l38.4,20.9C235.1,175.2,234,175.9,232.9,176.4"/>
			<path class="st2" d="M236.2,174.5l-38.4-20.9c0.9-0.6,1.7-1.3,2.6-2l38.4,20.9C237.9,173.2,237.1,173.9,236.2,174.5"/>
			<path class="st2" d="M238.8,172.5l-38.4-20.9c0.8-0.7,1.6-1.5,2.4-2.4l38.4,20.9C240.4,170.9,239.6,171.7,238.8,172.5"/>
			<path class="st2" d="M241.1,170.1l-38.4-20.9c0.8-0.9,1.6-1.9,2.4-3l38.4,20.9C242.7,168.1,241.9,169.1,241.1,170.1"/>
			<path class="st2" d="M243.5,167.1L205,146.2c0.9-1.3,1.7-2.6,2.5-4l38.4,20.9C245.2,164.5,244.3,165.8,243.5,167.1"/>
			<path class="st2" d="M245.9,163l-38.4-20.9c1.1-2,2.1-4.2,2.9-6.6l38.4,20.9C248,158.8,247,161,245.9,163"/>
			<path class="st2" d="M248.9,156.4l-38.4-20.9c2.8-7.7,4.4-17,4.4-27.5c0-20.4-5.8-34.8-15.3-40L238,88.9
				c9.5,5.2,15.3,19.6,15.3,40C253.3,139.4,251.7,148.8,248.9,156.4"/>
		</g>
		
			<use xlink:href="#SVGID_3_"  style="overflow:visible;fill:none;stroke:#0000FF;stroke-width:6.9666;stroke-linecap:round;stroke-linejoin:round;stroke-miterlimit:10;"/>
	</g>
	<g>
		<defs>
			<path id="SVGID_5_" d="M229.6,27L268,47.9c-11.4-6.2-25.2-8.6-40.8-6.4l-38.4-20.9C204.4,18.4,218.2,20.7,229.6,27z"/>
		</defs>
		<use xlink:href="#SVGID_5_"  style="overflow:visible;fill:#0000FF;"/>
		<clipPath id="SVGID_6_">
			<use xlink:href="#SVGID_5_"  style="overflow:visible;"/>
		</clipPath>
		<g class="st4">
			<path class="st2" d="M227.2,41.5l-38.4-20.9c10-1.4,19.3-0.9,27.7,1.2l38.4,20.9C246.5,40.5,237.2,40.1,227.2,41.5"/>
			<path class="st2" d="M254.8,42.7l-38.4-20.9c3.9,1,7.6,2.4,11.1,4.1l38.4,20.9C262.4,45.1,258.7,43.7,254.8,42.7"/>
			<path class="st2" d="M265.9,46.8l-38.4-20.9c0.7,0.3,1.4,0.7,2.1,1.1L268,47.9C267.3,47.5,266.6,47.1,265.9,46.8"/>
		</g>
		
			<use xlink:href="#SVGID_5_"  style="overflow:visible;fill:none;stroke:#0000FF;stroke-width:6.9666;stroke-linecap:round;stroke-linejoin:round;stroke-miterlimit:10;"/>
	</g>
	<g>
		<defs>
			<path id="SVGID_7_" d="M185.8,217.3l-38.4-20.9c-21.9-11.9-35-38.1-35-74C112.5,67.7,143,27,188.8,20.6l38.4,20.9
				c-45.7,6.4-76.3,47.2-76.4,101.8C150.7,179.2,163.8,205.4,185.8,217.3z"/>
		</defs>
		<use xlink:href="#SVGID_7_"  style="overflow:visible;fill:#0000FF;"/>
		<clipPath id="SVGID_8_">
			<use xlink:href="#SVGID_7_"  style="overflow:visible;"/>
		</clipPath>
		<g class="st5">
			<path class="st2" d="M158.2,99.8l-38.4-20.9c1.7-4.7,3.8-9.2,6-13.5l38.4,20.9C161.9,90.6,159.9,95.1,158.2,99.8"/>
			<path class="st2" d="M164.2,86.3l-38.4-20.9c1.8-3.4,3.8-6.6,5.9-9.6l38.4,20.9C168,79.8,166,83,164.2,86.3"/>
			<path class="st2" d="M170.1,76.7l-38.4-20.9c1.9-2.8,4-5.4,6.2-7.9l38.4,20.9C174.2,71.3,172.1,73.9,170.1,76.7"/>
			<path class="st2" d="M176.4,68.8L138,47.9c2.2-2.5,4.5-4.8,6.9-7l38.4,20.9C180.9,64,178.6,66.3,176.4,68.8"/>
			<path class="st2" d="M183.3,61.8l-38.4-20.9c2.6-2.4,5.4-4.6,8.3-6.6l38.4,20.9C188.7,57.3,185.9,59.4,183.3,61.8"/>
			<path class="st2" d="M191.6,55.3l-38.4-20.9c3.7-2.5,7.6-4.8,11.6-6.7l38.4,20.9C199.1,50.5,195.3,52.7,191.6,55.3"/>
			<path class="st2" d="M203.2,48.6l-38.4-20.9c7.4-3.5,15.4-5.9,24-7.1l38.4,20.9C218.6,42.7,210.6,45.1,203.2,48.6"/>
		</g>
		
			<use xlink:href="#SVGID_7_"  style="overflow:visible;fill:none;stroke:#0000FF;stroke-width:6.9666;stroke-linecap:round;stroke-linejoin:round;stroke-miterlimit:10;"/>
	</g>
	<g>
		<path class="st6" d="M227.2,41.5c45.5-6.4,75.9,25.8,75.8,80.4c-0.1,54.7-30.7,95.4-76.1,101.8c-45.7,6.4-76.2-25.7-76.1-80.4
			C150.9,88.7,181.5,47.9,227.2,41.5z M226.9,178.2c15.7-2.2,26.3-21.9,26.3-49.2S242.8,84.8,227.1,87
			c-15.9,2.2-26.5,21.9-26.6,49.3S211,180.4,226.9,178.2"/>
	</g>
</g>
<g>
	<defs>
		<path id="SVGID_9_" d="M80,240l-38.4-20.9c-1-0.5-1.6-1.7-1.6-3L78.4,237C78.4,238.3,79,239.4,80,240z"/>
	</defs>
	<use xlink:href="#SVGID_9_"  style="overflow:visible;fill:#0000FF;"/>
	<clipPath id="SVGID_10_">
		<use xlink:href="#SVGID_9_"  style="overflow:visible;"/>
	</clipPath>
	<g class="st7">
		<path class="st2" d="M80,240l-38.4-20.9c-1-0.5-1.6-1.7-1.6-3L78.4,237C78.4,238.3,79,239.4,80,240"/>
	</g>
	
		<use xlink:href="#SVGID_9_"  style="overflow:visible;fill:none;stroke:#0000FF;stroke-width:6.9666;stroke-linecap:round;stroke-linejoin:round;stroke-miterlimit:10;"/>
</g>
<g>
	<defs>
		<path id="SVGID_11_" d="M87.7,37l38.4,20.9c-0.4-0.2-1-0.3-1.7-0.2L86,36.8C86.7,36.7,87.2,36.8,87.7,37z"/>
	</defs>
	<use xlink:href="#SVGID_11_"  style="overflow:visible;fill:#0000FF;"/>
	<clipPath id="SVGID_12_">
		<use xlink:href="#SVGID_11_"  style="overflow:visible;"/>
	</clipPath>
	<g class="st8">
		<path class="st2" d="M124.4,57.7L86,36.8c0.5-0.1,0.9-0.1,1.2,0l38.4,20.9C125.3,57.6,124.9,57.6,124.4,57.7"/>
		<path class="st2" d="M125.6,57.7L87.2,36.8c0.1,0,0.3,0.1,0.4,0.1L126,57.9C125.9,57.8,125.8,57.7,125.6,57.7"/>
		<path class="st2" d="M126,57.9L87.6,36.9c0,0,0,0,0.1,0L126,57.9C126.1,57.9,126,57.9,126,57.9"/>
	</g>
	
		<use xlink:href="#SVGID_11_"  style="overflow:visible;fill:none;stroke:#0000FF;stroke-width:6.9666;stroke-linecap:round;stroke-linejoin:round;stroke-miterlimit:10;"/>
</g>
<g>
	<defs>
		<path id="SVGID_13_" d="M123.8,57.8L85.4,36.9c0.2-0.1,0.4-0.1,0.6-0.1l38.4,20.9C124.2,57.7,124,57.7,123.8,57.8z"/>
	</defs>
	<use xlink:href="#SVGID_13_"  style="overflow:visible;fill:#0000FF;"/>
	<clipPath id="SVGID_14_">
		<use xlink:href="#SVGID_13_"  style="overflow:visible;"/>
	</clipPath>
	<g class="st9">
		<path class="st2" d="M123.8,57.8L85.4,36.9c0.2-0.1,0.4-0.1,0.6-0.1l38.4,20.9C124.2,57.7,124,57.7,123.8,57.8"/>
	</g>
	
		<use xlink:href="#SVGID_13_"  style="overflow:visible;fill:none;stroke:#0000FF;stroke-width:6.9666;stroke-linecap:round;stroke-linejoin:round;stroke-miterlimit:10;"/>
</g>
<g>
	<polygon class="st2" points="78.4,237 40,216.1 40.2,91.3 78.7,112.2 	"/>
</g>
<g>
	<defs>
		<path id="SVGID_15_" d="M60.5,114.2L22.1,93.3c-0.7-0.4-1.2-1.2-1.1-2.3l38.4,20.9C59.3,113,59.8,113.8,60.5,114.2z"/>
	</defs>
	<use xlink:href="#SVGID_15_"  style="overflow:visible;fill:#0000FF;"/>
	<clipPath id="SVGID_16_">
		<use xlink:href="#SVGID_15_"  style="overflow:visible;"/>
	</clipPath>
	<g class="st10">
		<path class="st2" d="M60.5,114.2L22.1,93.3c-0.7-0.4-1.2-1.2-1.1-2.3l38.4,20.9C59.3,113,59.8,113.8,60.5,114.2"/>
	</g>
	
		<use xlink:href="#SVGID_15_"  style="overflow:visible;fill:none;stroke:#0000FF;stroke-width:6.9666;stroke-linecap:round;stroke-linejoin:round;stroke-miterlimit:10;"/>
</g>
<g>
	<polygon class="st2" points="63.3,76.4 24.8,55.5 85.4,36.9 123.8,57.8 	"/>
</g>
<g>
	<polygon class="st2" points="59.4,111.9 21,91 21.1,59.8 59.5,80.7 	"/>
</g>
<g>
	<defs>
		<path id="SVGID_17_" d="M59.5,80.7L21.1,59.8c0-2,1.4-3.7,3.8-4.3l38.4,20.9C60.9,77,59.5,78.7,59.5,80.7z"/>
	</defs>
	<use xlink:href="#SVGID_17_"  style="overflow:visible;fill:#0000FF;"/>
	<clipPath id="SVGID_18_">
		<use xlink:href="#SVGID_17_"  style="overflow:visible;"/>
	</clipPath>
	<g class="st11">
		<path class="st2" d="M59.5,80.7L21.1,59.8c0-0.5,0.1-1,0.3-1.4l38.4,20.9C59.6,79.8,59.5,80.2,59.5,80.7"/>
		<path class="st2" d="M59.8,79.3L21.3,58.4c0.1-0.2,0.1-0.4,0.2-0.5L60,78.8C59.9,79,59.8,79.1,59.8,79.3"/>
		<path class="st2" d="M60,78.8L21.6,57.9c0.1-0.1,0.2-0.3,0.3-0.4l38.4,20.9C60.2,78.5,60.1,78.6,60,78.8"/>
		<path class="st2" d="M60.3,78.4L21.8,57.5c0.1-0.1,0.2-0.3,0.3-0.4L60.6,78C60.4,78.1,60.3,78.2,60.3,78.4"/>
		<path class="st2" d="M60.6,78L22.1,57.1c0.1-0.1,0.2-0.2,0.4-0.4l38.4,20.9C60.8,77.7,60.7,77.9,60.6,78"/>
		<path class="st2" d="M60.9,77.6L22.5,56.7c0.1-0.1,0.3-0.3,0.5-0.4l38.4,20.9C61.2,77.4,61.1,77.5,60.9,77.6"/>
		<path class="st2" d="M61.4,77.2L23,56.3c0.2-0.2,0.5-0.3,0.8-0.4l38.4,20.9C61.9,76.9,61.6,77.1,61.4,77.2"/>
		<path class="st2" d="M62.1,76.8L23.7,55.9c0.3-0.2,0.7-0.3,1.1-0.4l38.4,20.9C62.9,76.5,62.5,76.7,62.1,76.8"/>
	</g>
	
		<use xlink:href="#SVGID_17_"  style="overflow:visible;fill:none;stroke:#0000FF;stroke-width:6.9666;stroke-linecap:round;stroke-linejoin:round;stroke-miterlimit:10;"/>
</g>
<g>
	<path class="st6" d="M124.4,57.7c1.7-0.2,2.7,0.6,2.7,2.2l-0.3,170.3c0,2-1.4,4-3.3,4.3l-41.5,5.8c-2.1,0.3-3.5-1.3-3.5-3.3
		l0.2-124.8l-16.2,2.3c-1.6,0.2-3.3-0.6-3-2.6l0.1-31.1c0-2,1.4-3.7,3.8-4.3l60.5-18.6C124,57.7,124.2,57.7,124.4,57.7z"/>
</g>
<rect x="196.2" y="96.5" class="st2" width="24.7" height="60.1"/>
<g>
	<path class="st12" d="M125.8,57.7c1.7-0.2,2.7,0.6,2.7,2.2l-0.3,170.3c0,2-1.4,4-3.3,4.3l-41.5,5.8c-2.1,0.3-3.5-1.3-3.5-3.3
		l0.2-124.8l-16.2,2.3c-1.6,0.2-3.3-0.6-3-2.6L61,80.7c0-2,1.4-3.7,3.8-4.3l60.5-18.6C125.4,57.7,125.7,57.7,125.8,57.7z"/>
</g>
<g>
	<path class="st12" d="M227.2,41.5c45.5-6.4,75.9,25.8,75.8,80.4c-0.1,54.7-30.7,95.4-76.1,101.8c-45.7,6.4-76.2-25.7-76.1-80.4
		C150.9,88.7,181.5,47.9,227.2,41.5z M226.9,178.2c15.7-2.2,26.3-21.9,26.3-49.2S242.8,84.8,227.1,87c-15.9,2.2-26.5,21.9-26.6,49.3
		S211,180.4,226.9,178.2"/>
</g>
</svg>
