<?xml version="1.0" encoding="UTF-8" standalone="no"?>
<svg width="16px" height="16px" viewBox="0 0 16 16" version="1.1" xmlns="http://www.w3.org/2000/svg" xmlns:xlink="http://www.w3.org/1999/xlink">
    <!-- Generator: Sketch 41.2 (35397) - http://www.bohemiancoding.com/sketch -->
    <title>Flag</title>
    <desc>Created with Sketch.</desc>
    <defs></defs>
    <g id="Page-1" stroke="none" stroke-width="1" fill="none" fill-rule="evenodd">
        <g id="Artboard-Copy" fill="#FFFFFF">
            <g id="Flag">
                <path d="M1.52727273,2.4 C1.30909091,2.03636364 0.872727273,1.89090909 0.581818182,2.10909091 C0.218181818,2.32727273 0.0727272727,2.76363636 0.290909091,3.12727273 L7.2,15.1272727 C7.34545455,15.3454545 7.56363636,15.4909091 7.85454545,15.4909091 C8,15.4909091 8.07272727,15.4909091 8.21818182,15.4181818 C8.58181818,15.2 8.65454545,14.7636364 8.50909091,14.4 L1.52727273,2.4 Z" id="Fill-1"></path>
                <path d="M15.0545455,1.67272727 C14.8363636,1.45454545 14.5454545,1.38181818 14.3272727,1.45454545 C13.4545455,1.67272727 12.1454545,1.38181818 10.6909091,1.09090909 C9.52727273,0.8 8.29090909,0.509090909 7.05454545,0.509090909 C5.38181891,0.509090909 4.072728,1.09090909 3.05454618,2.25454545 L7.05454545,9.23636436 C7.2,9.16363709 7.27272727,9.09090982 7.34545455,8.94545527 C8.14545455,7.49090909 9.23636364,7.05454545 10.5454545,6.61818182 C12.1454545,6.03636364 13.9636364,5.30909091 15.1272727,2.47272727 C15.3454545,2.18181818 15.2727273,1.89090909 15.0545455,1.67272727 Z" id="Fill-3"></path>
            </g>
        </g>
    </g>
</svg>