<?xml version="1.0" encoding="utf-8"?>
<!-- Generator: Adobe Illustrator 19.1.0, SVG Export Plug-In . SVG Version: 6.00 Build 0)  -->
<svg version="1.1" id="Layer_1" xmlns="http://www.w3.org/2000/svg" xmlns:xlink="http://www.w3.org/1999/xlink" x="0px" y="0px"
	 viewBox="0.1 61.8 792 507.2" style="enable-background:new 0.1 61.8 792 507.2;" xml:space="preserve">
<style type="text/css">
	.st0{fill:none;stroke:#000000;stroke-width:3;stroke-miterlimit:10;}
</style>
<g>
	<g>
		<path class="st0" d="M106.6,160.9c-0.7,0-1.3,0-2,0.1c-8.2,1-13.3,7.5-12.4,15.5l2.2,17.6L21.1,203C12.3,204,6.9,210.9,8,219.6
			c1,7.9,6.8,13,14.5,13c0.7,0,1.5,0,2.2-0.1l73.3-8.8l2.2,17.7c0.9,7.5,6.4,12.3,13.5,12.3c0.7,0,1.3,0,2-0.1
			c8.2-1,13.3-7.5,12.4-15.5l-7.8-65.1C119.3,165.8,113.8,160.9,106.6,160.9L106.6,160.9z"/>
	</g>
	<g>
		<path class="st0" d="M130.4,270.6L130.4,270.6c4.6,0,8.5,2.7,10.5,7.5c2.7,6.7,0.2,13-6.5,15.8l-81.1,33.7
			c-1.8,0.7-3.5,1.1-5.2,1.1c-4.6,0-8.5-2.7-10.5-7.5c-2.7-6.7-0.2-13,6.5-15.8l81.1-33.7C127,271,128.8,270.6,130.4,270.6l0.1,0.4"
			/>
	</g>
	<g>
		<path class="st0" d="M153.7,320.7c3.8,0,7.5,1.9,10.6,5.5c5.9,6.9,5.4,13.8,2.3,25.2L150,410.7l-2.6,9.4l7.4-6.4l39.5-34.2
			c2.5-2.2,5.3-3.2,8.1-3.2c3.2,0,6.4,1.6,8.8,4.3c2.4,2.6,3.4,5.7,3.2,8.8c-0.2,3-1.8,5.9-4.4,8.2l-63.6,55.1
			c-3.6,3.1-7.5,4.8-11.1,4.8s-7.1-1.7-9.8-4.8c-6.4-7.4-6-14.2-2.9-26.1l15-57.8l2.4-9.1l-7.2,6.2l-38,32.9
			c-2.5,2.2-5.3,3.2-8.1,3.2c-3.2,0-6.4-1.6-8.8-4.3c-4.7-5.5-4.2-12.4,1.2-17.1l63.6-55.1C146.5,322.4,150.1,320.7,153.7,320.7"/>
	</g>
	<g>
		<path class="st0" d="M240.7,402.5c-8.1,0-14.8,7-13.6,17.6l7.2,64.7l-10,21.7c-3.7,8-0.7,16.2,7.4,19.9c2.3,1.1,4.5,1.6,6.7,1.6
			c5.5,0,10.4-3.1,13.1-8.9l10-21.7l55.5-37.3c10.1-6.7,10.3-19.2-0.8-24.3c-2.4-1.1-4.5-1.6-6.6-1.6c-4.9,0-9.4,2.5-14.6,6.1
			l-33.6,23.1L257,421c-0.6-6.9-1.8-13.4-9.5-17C245.2,403,243,402.5,240.7,402.5L240.7,402.5z"/>
	</g>
	<g>
		<path class="st0" d="M382,442.5c-36.7,0-58.1,24.7-60.3,56.6c-2.3,33.4,17.7,62,57.8,64.7c1.7,0.1,3.3,0.2,5,0.2
			c20.1,0,37.8-8.1,38.6-21c0.6-9.2-5.6-13.8-13-14.3c-0.5,0-1-0.1-1.5-0.1c-8.8,0-13.6,5.4-25.7,5.4c-0.9,0-1.9,0-2.9-0.1
			c-19.5-1.3-27.6-15.7-26.5-32.6c1.1-16.2,10.2-28.9,27.9-28.9c0.9,0,1.8,0,2.6,0.1c15,1,18.6,8.5,29.1,9.2c0.4,0,0.9,0,1.3,0
			c6.9,0,12.9-3.8,13.5-12.4c1-13.9-18.4-25-40.5-26.5C385.8,442.6,383.8,442.5,382,442.5L382,442.5z"/>
	</g>
	<g>
		<path class="st0" d="M528.4,414.4c-1.9,0-3.8,0.3-5.7,1.1c-8.1,2.9-11.9,10.9-8.8,19.2l9.6,26.4l-42.1,15.3l-9.6-26.4
			c-2.4-6.4-7.5-10-13.5-10c-1.9,0-3.8,0.3-5.7,1.1c-8.1,2.9-11.9,10.9-8.8,19.2l30,82.5c2.4,6.4,7.5,10,13.5,10
			c1.9,0,3.8-0.3,5.7-1.1c8.1-2.9,11.9-10.9,8.8-19.2l-10.8-29.8l42.1-15.3l10.8,29.8c2.4,6.4,7.5,10,13.5,10c1.9,0,3.8-0.3,5.7-1.1
			c8.1-2.9,11.9-10.9,8.8-19.2l-30-82.5C539.6,418,534.4,414.4,528.4,414.4L528.4,414.4z"/>
	</g>
	<g>
		<path class="st0" d="M572.6,382.5c-3.2,0-6.6,1.2-9.5,3.5c-6.9,5.4-7.8,14-2.4,21l54.4,68.8c3.1,3.9,7.3,6,11.6,6
			c3.2,0,6.6-1.2,9.5-3.5c6.9-5.4,7.8-14,2.4-21l-54.4-68.8C581.1,384.6,577,382.5,572.6,382.5L572.6,382.5z"/>
	</g>
	<g>
		<path class="st0" d="M665.2,265.6c-5.4,0-10.3,2.7-13.9,8.5c-5.2,8.5-3.6,15.4,0.4,23.3l21.4,42.1l-41.9,0.1
			c-13,0.1-21.1,1.8-26.9,11.4c-6.6,10.8-3.9,21.1,6.6,27.5l70.8,43.1c2.7,1.7,5.5,2.5,8.2,2.5c4.9,0,9.4-2.5,12.4-7.5
			c4.5-7.5,2.5-15.9-5.1-20.5l-45.6-27.8l33.9-0.7c8.4-0.2,12.8-2.9,16.2-8.4c3.4-5.6,3.7-10.7,0.1-18.2l-15.1-30.6l45.8,27.9
			c2.7,1.7,5.5,2.5,8.2,2.5c4.9,0,9.4-2.5,12.4-7.5c4.5-7.5,2.5-15.9-5.1-20.5l-72.5-44.1C672.1,266.7,668.6,265.6,665.2,265.6
			L665.2,265.6z"/>
	</g>
	<g>
		<path class="st0" d="M682.5,165.9c-7.3,0-12.7,4.9-13.6,12.3l-6.1,49.8c-1,8,4,14.5,12.2,15.5l87.5,10.7c0.7,0.1,1.4,0.1,2,0.1
			c7.2,0,12.6-4.9,13.5-12.3l6.1-49.8c1-8-4-14.5-12.2-15.5c-0.7-0.1-1.4-0.1-2.1-0.1c-7.3,0-12.7,4.9-13.6,12.3l-4.1,33.9
			l-16.6-2.1l3.2-26.8c1-8-4-14.5-12.2-15.5c-0.7-0.1-1.4-0.1-2.1-0.1c-7.3,0-12.7,4.9-13.6,12.3l-3.2,26.8l-15.1-1.9l4.1-33.9
			c1-8-4-14.5-12.2-15.5C683.9,166,683.2,165.9,682.5,165.9L682.5,165.9z"/>
	</g>
</g>
<g>
	<g>
		<g>
			<path class="st0" d="M510.4,66.8c-28.4,0-51.5,23-51.5,51.5s23,51.5,51.5,51.5s51.5-23,51.5-51.5S538.8,66.8,510.4,66.8
				L510.4,66.8z"/>
		</g>
	</g>
	<g>
		<g>
			<path class="st0" d="M281,66.8c-28.4,0-51.5,23-51.5,51.5s23,51.5,51.5,51.5s51.5-23,51.5-51.5S309.4,66.8,281,66.8L281,66.8z"/>
		</g>
	</g>
</g>
</svg>
