<?xml version="1.0" encoding="utf-8"?>
<!-- Generator: Adobe Illustrator 19.1.0, SVG Export Plug-In . SVG Version: 6.00 Build 0)  -->
<svg version="1.1" id="Layer_1" xmlns="http://www.w3.org/2000/svg" xmlns:xlink="http://www.w3.org/1999/xlink" x="0px" y="0px"
	 viewBox="0 0 792 487.2" style="enable-background:new 0 0 792 487.2;" xml:space="preserve">
<style type="text/css">
	.st0{fill:#FFFFFF;}
</style>
<g>
	<g>
		<path class="st0" d="M100.8,83c3.8,0,6.4,2.4,6.9,6.4l8,66.4c0.5,4.4-2,7.5-6.5,8.1c-0.4,0-0.8,0.1-1.2,0.1
			c-3.8,0-6.4-2.4-6.9-6.4l-2.2-18.1l-0.8-6.9l-6.9,0.8l-74.8,9c-0.5,0.1-0.9,0.1-1.4,0.1c-4.4,0-7.3-2.7-7.9-7.2
			c-0.3-2.5,0.2-4.7,1.5-6.3c1.3-1.6,3.3-2.6,5.8-2.9l74.8-9l6.9-0.8l-0.8-6.9l-2.2-18c-0.3-2.2,0.2-4,1.3-5.4
			c1.1-1.4,2.9-2.3,5.2-2.6C100,83,100.4,83,100.8,83 M100.8,76c-0.7,0-1.3,0-2,0.1c-8.4,1-13.6,7.6-12.6,15.8l2.2,18l-74.8,9
			c-9,1.1-14.5,8.1-13.4,17c1,8.1,6.9,13.3,14.8,13.3c0.7,0,1.5,0,2.2-0.1l74.8-9l2.2,18.1c0.9,7.6,6.5,12.5,13.8,12.5
			c0.7,0,1.3,0,2-0.1c8.4-1,13.6-7.6,12.6-15.8l-8-66.4C113.7,81,108.1,76,100.8,76L100.8,76z"/>
	</g>
	<g>
		<path class="st0" d="M125.1,184.9v7c3.1,0,5.6,1.8,7,5.1c2,4.8,0.3,8.9-4.5,10.9L45,242.3c-1.3,0.5-2.6,0.8-3.8,0.8
			c-3.1,0-5.6-1.8-7-5.1c-2-4.8-0.3-8.9,4.5-10.9l82.7-34.4c1.3-0.5,2.6-0.8,3.8-0.8L125.1,184.9 M125.1,184.9
			c-2.1,0-4.3,0.4-6.5,1.4l-82.7,34.4c-8.4,3.5-11.7,11.7-8.3,20c2.5,6,7.6,9.4,13.5,9.4c2.1,0,4.3-0.4,6.5-1.4l82.7-34.4
			c8.4-3.5,11.7-11.7,8.3-20C136.1,188.3,131,184.9,125.1,184.9L125.1,184.9z"/>
	</g>
	<g>
		<path class="st0" d="M148.8,243c2.7,0,5.4,1.4,7.8,4.2c4.4,5.1,4.7,10.2,1.5,22l-16.8,60.5l-6.2,22.3l17.5-15.2L193,302
			c1.8-1.5,3.7-2.4,5.6-2.4c2.2,0,4.3,1.1,6,3.1c1.7,1.9,2.5,4,2.3,6.1c-0.1,2-1.2,4-3.2,5.7l-64.9,56.2c-2.9,2.5-5.9,3.9-8.7,3.9
			c-2.6,0-4.9-1.2-7-3.6c-5.4-6.2-5-11.9-2.2-23l15.3-59l5.7-21.8l-17,14.8l-38.8,33.6c-1.8,1.5-3.7,2.4-5.6,2.4
			c-2.2,0-4.3-1.1-6-3.1c-3.4-3.9-3.1-8.3,0.8-11.7l64.9-56.2C143.3,244.4,146.2,243,148.8,243 M148.8,236c-4.2,0-8.7,1.8-13,5.6
			l-64.9,56.2c-6.8,5.9-7.5,14.8-1.5,21.6c3.1,3.6,7.2,5.5,11.3,5.5c3.5,0,7.1-1.3,10.2-4.1l38.8-33.6l-15.3,59
			c-3.1,12-4,20.5,3.7,29.3c3.4,3.9,7.7,6,12.3,6c4.3,0,8.9-1.8,13.2-5.6l64.9-56.2c6.8-5.9,7.5-14.8,1.5-21.6
			c-3.1-3.6-7.2-5.5-11.3-5.5c-3.5,0-7.1,1.3-10.2,4.1l-40.3,34.9l16.8-60.5c3.4-12.2,4-20.5-2.9-28.5
			C158.2,238.4,153.7,236,148.8,236L148.8,236z"/>
	</g>
	<g>
		<path class="st0" d="M237.6,329.5c1.3,0,2.6,0.3,4,0.9c3.8,1.8,5,4.2,5.7,11.6l0,0l0,0l4.4,43.3l1.2,11.8l9.7-6.7l34.3-23.6
			c4.6-3.1,8-5,11-5c1.2,0,2.4,0.3,3.8,0.9c1.9,0.9,4.2,2.5,4.4,5.2c0.2,2.6-1.5,5.4-4.6,7.4l-56.6,38.1l-1.6,1.1l-0.8,1.8
			l-10.2,22.1c-1.5,3.3-4,5.1-7,5.1c-1.3,0-2.6-0.3-3.9-0.9c-4.7-2.2-6.3-6.3-4.1-11l10.2-22.1l0.8-1.8l-0.2-1.9l-7.3-66
			c-0.4-3.4,0.3-6.3,2-8.1C234,330.3,235.7,329.5,237.6,329.5 M237.6,322.5c-8.3,0-15.1,7.1-13.9,18l7.3,66l-10.2,22.1
			c-3.8,8.2-0.7,16.5,7.5,20.3c2.3,1.1,4.6,1.6,6.8,1.6c5.6,0,10.6-3.2,13.4-9.1l10.2-22.1l56.6-38.1c10.3-6.8,10.5-19.6-0.8-24.8
			c-2.4-1.1-4.6-1.6-6.7-1.6c-5,0-9.6,2.6-14.9,6.2l-34.3,23.6l-4.4-43.3c-0.6-7-1.8-13.7-9.7-17.3
			C242.2,323,239.9,322.5,237.6,322.5L237.6,322.5z"/>
	</g>
	<g>
		<path class="st0" d="M381.7,363.3v7c1.8,0,3.6,0.1,5.4,0.2c9.9,0.7,19.4,3.5,26.2,7.7c3.4,2.1,9,6.5,8.6,11.9
			c-0.1,2.2-0.8,3.8-2,4.8c-1.1,0.9-2.8,1.4-4.8,1.4c-0.3,0-0.6,0-0.9,0c-3.4-0.2-5.9-1.5-9.3-3.3c-4.7-2.4-10.7-5.5-20.4-6.1
			c-1.1-0.1-2.1-0.1-3.2-0.1c-10.6,0-19.5,3.8-25.9,10.9c-5.6,6.3-9,15-9.6,25.1c-0.7,10.7,1.7,20.1,6.9,27.3
			c5.9,8,15.1,12.7,26.6,13.5c1.2,0.1,2.3,0.1,3.4,0.1c7.8,0,13.3-1.9,17.6-3.5c3.2-1.1,5.7-2,8.6-2c0.3,0,0.7,0,1,0
			c2.3,0.2,4.1,0.9,5.3,2c0.4,0.4,1.7,1.7,1.5,5.2c-0.6,8.2-15.1,14.9-32.5,14.9c-1.5,0-3.1-0.1-4.6-0.2
			c-17.4-1.2-31.5-7.7-40.8-18.7c-8.6-10.3-12.7-24.4-11.7-39.8c1-14.8,6.4-27.4,15.5-36.5c9.6-9.6,23.1-14.6,39-14.6L381.7,363.3
			 M381.7,363.3c-37.4,0-59.3,25.2-61.5,57.7c-2.3,34.1,18.1,63.2,59,66c1.7,0.1,3.4,0.2,5.1,0.2c20.5,0,38.6-8.3,39.4-21.4
			c0.6-9.4-5.7-14.1-13.3-14.6c-0.5,0-1-0.1-1.5-0.1c-9,0-13.9,5.5-26.2,5.5c-0.9,0-1.9,0-3-0.1c-19.9-1.3-28.2-16-27-33.3
			c1.1-16.5,10.4-29.5,28.5-29.5c0.9,0,1.8,0,2.7,0.1c15.3,1,19,8.7,29.7,9.4c0.4,0,0.9,0,1.3,0c7,0,13.2-3.9,13.8-12.7
			c1-14.2-18.8-25.5-41.3-27C385.6,363.4,383.6,363.3,381.7,363.3L381.7,363.3z"/>
	</g>
	<g>
		<path class="st0" d="M531.1,341.6c3.3,0,5.9,2,7.2,5.6l30.6,84.2c1.8,4.8-0.1,8.9-4.8,10.6c-1.2,0.4-2.3,0.7-3.4,0.7
			c-3.3,0-5.9-2-7.2-5.6l-11-30.4l-2.4-6.6l-6.6,2.4l-42.9,15.6l-6.6,2.4l2.4,6.6l11,30.4c0.9,2.4,0.9,4.6,0,6.5
			c-0.8,1.8-2.5,3.3-4.8,4.1c-1.2,0.4-2.3,0.7-3.5,0.7c-3.3,0-5.9-2-7.2-5.6l-30.6-84.2c-1.8-4.8,0.1-8.9,4.8-10.6
			c1.2-0.4,2.3-0.7,3.5-0.7c3.3,0,5.9,2,7.2,5.6l9.8,26.9l2.4,6.6l6.6-2.4l42.9-15.6l6.6-2.4l-2.4-6.6l-9.8-26.9
			c-1.8-4.8,0.1-8.9,4.8-10.6C528.8,341.8,530,341.6,531.1,341.6 M531.1,334.6c-1.9,0-3.9,0.3-5.8,1.1c-8.3,3-12.1,11.1-9,19.6
			l9.8,26.9l-42.9,15.6l-9.8-26.9c-2.4-6.5-7.6-10.2-13.8-10.2c-1.9,0-3.9,0.3-5.8,1.1c-8.3,3-12.1,11.1-9,19.6l30.6,84.2
			c2.4,6.5,7.6,10.2,13.8,10.2c1.9,0,3.9-0.3,5.8-1.1c8.3-3,12.1-11.1,9-19.6l-11-30.4l42.9-15.6l11,30.4
			c2.4,6.5,7.6,10.2,13.8,10.2c1.9,0,3.9-0.3,5.8-1.1c8.3-3,12.1-11.1,9-19.6l-30.6-84.2C542.5,338.3,537.2,334.6,531.1,334.6
			L531.1,334.6z"/>
	</g>
	<g>
		<path class="st0" d="M576.2,309.1c2.3,0,4.5,1.2,6.3,3.5l55.5,70.2c1.6,2,2.3,4.1,2.1,6.2c-0.2,2-1.4,3.9-3.3,5.4
			c-1.7,1.4-3.6,2.1-5.4,2.1c-2.3,0-4.5-1.2-6.3-3.5l-55.5-70.2c-3.2-4-2.7-8.5,1.2-11.6C572.6,309.8,574.4,309.1,576.2,309.1
			 M576.2,302.1c-3.3,0-6.7,1.2-9.7,3.6c-7,5.5-8,14.3-2.4,21.4l55.5,70.2c3.2,4,7.4,6.1,11.8,6.1c3.3,0,6.7-1.2,9.7-3.6
			c7-5.5,8-14.3,2.4-21.4L588,308.2C584.8,304.2,580.6,302.1,576.2,302.1L576.2,302.1z"/>
	</g>
	<g>
		<path class="st0" d="M670.6,189.8c2.1,0,4.5,0.8,6.9,2.2l73.9,45.1c2.2,1.3,3.6,3.1,4.1,5.1c0.5,2,0.1,4.1-1.2,6.2
			c-1.7,2.7-4,4.2-6.7,4.2c-1.6,0-3.2-0.5-4.8-1.5l-46.7-28.5l-20.6-12.5l10.6,21.6l15.3,31.2c2.8,5.8,2.3,8.4,0.2,11.8
			c-2,3.3-4.3,5.1-10.6,5.2l-34.6,0.7l-23.9,0.5l20.4,12.5l46.5,28.4c2.2,1.3,3.6,3.1,4.1,5.1c0.5,2,0.1,4.1-1.2,6.2
			c-1.7,2.7-4,4.2-6.7,4.2c-1.6,0-3.2-0.5-4.8-1.5l-72.2-44c-2.6-1.6-5.8-4.2-6.7-8c-0.9-3.9,0.8-7.8,2.4-10.4
			c3.9-6.4,8.5-8.1,21.5-8.3l42.7-0.1l11.4,0l-5.2-10.1l-21.8-42.9c-3.8-7.5-4-11.6-0.7-17C664.6,191.6,667.4,189.8,670.6,189.8
			 M670.6,182.8c-5.5,0-10.5,2.8-14.2,8.7c-5.3,8.7-3.7,15.7,0.4,23.8l21.8,42.9l-42.7,0.1c-13.3,0.1-21.5,1.8-27.4,11.6
			c-6.7,11-4,21.5,6.7,28.1l72.2,44c2.8,1.7,5.6,2.5,8.4,2.5c5,0,9.6-2.6,12.7-7.6c4.6-7.6,2.5-16.2-5.2-20.9l-46.5-28.4l34.6-0.7
			c8.6-0.2,13.1-3,16.5-8.6c3.5-5.7,3.8-10.9,0.1-18.6l-15.4-31.2l46.7,28.5c2.8,1.7,5.6,2.5,8.4,2.5c5,0,9.6-2.6,12.7-7.6
			c4.6-7.6,2.5-16.2-5.2-20.9L681.2,186C677.7,183.9,674.1,182.8,670.6,182.8L670.6,182.8z"/>
	</g>
	<g>
		<path class="st0" d="M688.3,88.1L688.3,88.1c0.4,0,0.8,0,1.3,0.1c2.2,0.3,3.9,1.2,5,2.6c1.1,1.4,1.6,3.3,1.3,5.5l-4.2,34.6
			l-0.8,6.9l6.9,0.8l15.4,1.9l6.9,0.8l0.8-6.9l3.3-27.3c0.5-4,3.1-6.3,7-6.3c0.4,0,0.8,0,1.3,0.1c2.2,0.3,3.9,1.2,5,2.6
			c1.1,1.4,1.6,3.3,1.3,5.5l-3.3,27.3l-0.8,6.9l6.9,0.8l16.9,2.1l6.9,0.8l0.8-6.9l4.2-34.6c0.5-4,3.1-6.3,7-6.3c0.4,0,0.8,0,1.3,0.1
			c4.4,0.5,6.8,3.6,6.3,8l-6.2,50.8c-0.5,4-3,6.4-6.9,6.4c-0.4,0-0.8,0-1.2-0.1l-89.3-10.9c-2.2-0.3-3.9-1.2-5-2.6
			c-1.1-1.4-1.6-3.3-1.3-5.5l6.2-50.8C681.8,90.5,684.4,88.1,688.3,88.1 M688.3,81.1c-7.4,0-13,5-13.9,12.5l-6.2,50.8
			c-1,8.2,4.1,14.8,12.4,15.8l89.3,10.9c0.7,0.1,1.4,0.1,2,0.1c7.3,0,12.9-5,13.8-12.5l6.2-50.8c1-8.2-4.1-14.8-12.4-15.8
			c-0.7-0.1-1.4-0.1-2.1-0.1c-7.4,0-13,5-13.9,12.5l-4.2,34.6l-16.9-2.1l3.3-27.3c1-8.2-4.1-14.8-12.4-15.8
			c-0.7-0.1-1.4-0.1-2.1-0.1c-7.4,0-13,5-13.9,12.5l-3.3,27.3l-15.4-1.9l4.2-34.6c1-8.2-4.1-14.8-12.4-15.8
			C689.7,81.2,689,81.1,688.3,81.1L688.3,81.1z"/>
	</g>
</g>
<g>
	<g>
		<g>
			<path class="st0" d="M512.7,7c25.1,0,45.5,20.4,45.5,45.5S537.8,98,512.7,98s-45.5-20.4-45.5-45.5S487.6,7,512.7,7 M512.7,0
				c-29,0-52.5,23.5-52.5,52.5s23.5,52.5,52.5,52.5c29,0,52.5-23.5,52.5-52.5S541.7,0,512.7,0L512.7,0z"/>
		</g>
	</g>
	<g>
		<g>
			<path class="st0" d="M278.7,7c25.1,0,45.5,20.4,45.5,45.5S303.8,98,278.7,98s-45.5-20.4-45.5-45.5S253.6,7,278.7,7 M278.7,0
				c-29,0-52.5,23.5-52.5,52.5s23.5,52.5,52.5,52.5s52.5-23.5,52.5-52.5S307.7,0,278.7,0L278.7,0z"/>
		</g>
	</g>
</g>
</svg>
