<?xml version="1.0" encoding="utf-8"?>
<!-- Generator: Adobe Illustrator 19.1.0, SVG Export Plug-In . SVG Version: 6.00 Build 0)  -->
<svg version="1.1" id="Layer_1" xmlns="http://www.w3.org/2000/svg" xmlns:xlink="http://www.w3.org/1999/xlink" x="0px" y="0px"
	 viewBox="-473 261 205 128" style="enable-background:new -473 261 205 128;" xml:space="preserve">
<title>TinyChime Logo Copy</title>
<desc>Created with Sketch.</desc>
<g id="Page-1">
	<g id="Artboard-2" transform="translate(-44.000000, -81.000000)">
		<g id="TinyChime-Logo-Copy" transform="translate(44.000000, 81.000000)">
			<polygon id="Fill-1" points="-453.9,280.1 -453.4,287.5 -473,288.9 -472.5,295.7 -452.9,294.4 -452.4,301.8 -446.6,301.4 
				-448.1,279.7 			"/>
			<polygon id="Fill-2" points="-443.1,311.4 -440.5,317.8 -464.1,327.4 -466.7,321.1 			"/>
			<polygon id="Fill-3" points="-435.3,328.6 -431.3,333.1 -436.1,349.7 -425.2,339.9 -420.9,344.8 -439.9,361.8 -443.8,357.4 
				-439.1,340.7 -450,350.4 -454.3,345.6 			"/>
			<polygon id="Fill-4" points="-406.7,353.6 -406.6,364.5 -398.3,357.5 -391.7,360.5 -405.9,371.2 -410,380.3 -416.2,377.4 
				-412.1,368.4 -413.5,350.5 			"/>
			<path id="Fill-5" d="M-362.7,379.2c-0.2,1.4-0.5,2.7-1.1,3.9c-0.6,1.2-1.3,2.2-2.3,3.1c-1,0.9-2.2,1.5-3.6,2
				c-1.4,0.5-3,0.6-4.8,0.6c-2.1-0.1-3.8-0.5-5.3-1.2c-1.5-0.7-2.7-1.7-3.7-2.9c-0.9-1.2-1.6-2.6-2.1-4.3c-0.4-1.7-0.6-3.5-0.5-5.4
				c0.1-2,0.4-3.8,1-5.5c0.6-1.6,1.4-3,2.5-4.2c1.1-1.1,2.4-2,4-2.6c1.6-0.6,3.4-0.9,5.4-0.8c3.1,0.1,5.6,1,7.3,2.7
				c1.7,1.6,2.7,3.9,3.1,6.8l-6.8,0.5c-0.1-0.6-0.2-1.1-0.4-1.6c-0.2-0.5-0.4-0.9-0.7-1.3c-0.3-0.4-0.7-0.7-1.2-0.9
				c-0.5-0.2-1-0.4-1.7-0.4c-3.3-0.1-5,2.3-5.2,7.3c-0.1,1.4,0,2.6,0.2,3.5c0.2,1,0.5,1.8,0.9,2.4c0.4,0.6,0.9,1.1,1.5,1.4
				s1.3,0.4,2,0.5c2.5,0.1,4-1.2,4.5-3.9L-362.7,379.2z"/>
			<polygon id="Fill-8" points="-352.4,361 -346,358.5 -342.6,367.1 -334.9,364 -338.3,355.4 -332,352.8 -322.5,376.6 -328.9,379.2 
				-332.6,369.8 -340.3,372.9 -336.6,382.3 -343,384.8 			"/>
			<polygon id="Fill-10" points="-322.6,345.5 -317.4,341 -300.6,360.2 -305.7,364.7 			"/>
			<polygon id="Fill-12" points="-276.8,326.5 -289.3,320 -278.9,330.5 -281.2,335 -295.8,332.5 -283.3,339 -286.2,344.7 
				-308.8,332.9 -305.2,325.8 -287.5,328.8 -300.1,316 -296.4,308.9 -273.8,320.7 			"/>
			<polygon id="Fill-14" points="-294.5,297.9 -293.6,279.6 -288,279.8 -288.5,291.4 -284.5,291.6 -283.9,280.7 -278.3,281 
				-278.8,291.9 -274.3,292.1 -273.7,279.8 -268.1,280.6 -269,299.1 			"/>
			<path id="Fill-16" d="M-384.2,277.6c0,8.7-7,15.7-15.7,15.7c-8.7,0-15.7-7-15.7-15.7c0-8.7,7-15.7,15.7-15.7
				C-391.2,261.9-384.2,268.9-384.2,277.6"/>
			<path id="Fill-18" d="M-325.9,277.1c0,8.7-7,15.7-15.7,15.7c-8.7,0-15.7-7-15.7-15.7s7-15.7,15.7-15.7
				C-332.9,261.3-325.9,268.4-325.9,277.1"/>
		</g>
	</g>
</g>
</svg>
