<?xml version="1.0" encoding="utf-8"?>
<!-- Generator: Adobe Illustrator 18.1.1, SVG Export Plug-In . SVG Version: 6.00 Build 0)  -->
<!DOCTYPE svg PUBLIC "-//W3C//DTD SVG 1.1//EN" "http://www.w3.org/Graphics/SVG/1.1/DTD/svg11.dtd">
<svg version="1.1" id="Layer_1" xmlns="http://www.w3.org/2000/svg" xmlns:xlink="http://www.w3.org/1999/xlink" x="0px" y="0px"
	 viewBox="0 0 847.2 459" enable-background="new 0 0 847.2 459" xml:space="preserve">
<g>
	<g>
		<linearGradient id="SVGID_1_" gradientUnits="userSpaceOnUse" x1="-1.4692" y1="269.2621" x2="803.7954" y2="269.2621">
			<stop  offset="0" style="stop-color:#FFF200"/>
			<stop  offset="0.6305" style="stop-color:#ED1C24"/>
			<stop  offset="1" style="stop-color:#2E3192"/>
		</linearGradient>
		<path fill="url(#SVGID_1_)" d="M41.1,285c0,39.1,0,78.1,0,117.2c-13.7,5.1-27.4,11.3-41.1,18.9c0-88.6,0-177.3,0-265.9
			c13.7-7.5,27.4-13.8,41.1-18.9c0,36.9,0,73.9,0,110.8c19.5-7.3,39.1-12.2,58.6-15.2c0-36.9,0-73.9,0-110.8
			c13.7-2.1,27.4-3.3,41.1-3.7c0,88.6,0,177.3,0,265.9c-13.7,0.4-27.4,1.6-41.1,3.7c0-39.1,0-78.1,0-117.2
			C80.1,272.9,60.6,277.8,41.1,285z"/>
		<linearGradient id="SVGID_2_" gradientUnits="userSpaceOnUse" x1="-29.7478" y1="258.9409" x2="775.5168" y2="258.9409">
			<stop  offset="0" style="stop-color:#FFF200"/>
			<stop  offset="0.6305" style="stop-color:#ED1C24"/>
			<stop  offset="1" style="stop-color:#2E3192"/>
		</linearGradient>
		<path fill="url(#SVGID_2_)" d="M279.8,172.5c-26.4-6.2-52.9-11.4-79.3-14.4c0,23.4,0,46.8,0,70.2c19.5,2.2,39.1,5.7,58.6,9.8
			c0,12.6,0,25.2,0,37.9c-19.5-4.1-39.1-7.5-58.6-9.8c0,27.4,0,54.7,0,82.1c26.4,3,52.9,8.2,79.3,14.4c0,12.6,0,25.2,0,37.9
			c-40.1-9.4-80.3-16.5-120.4-17.3c0-88.6,0-177.3,0-265.9c40.1,0.8,80.3,7.8,120.4,17.3C279.8,147.3,279.8,159.9,279.8,172.5z"/>
		<linearGradient id="SVGID_3_" gradientUnits="userSpaceOnUse" x1="-49.5429" y1="287.683" x2="755.7219" y2="287.683">
			<stop  offset="0" style="stop-color:#FFF200"/>
			<stop  offset="0.6305" style="stop-color:#ED1C24"/>
			<stop  offset="1" style="stop-color:#2E3192"/>
		</linearGradient>
		<path fill="url(#SVGID_3_)" d="M336.2,377.1c27.2,7.4,54.5,15.1,81.7,22c0,12.6,0,25.2,0,37.9c-40.9-10.3-81.8-22.6-122.8-32.8
			c0-88.6,0-177.3,0-265.9c13.7,3.4,27.4,7.1,41.1,10.8C336.2,225.1,336.2,301.1,336.2,377.1z"/>
		<linearGradient id="SVGID_4_" gradientUnits="userSpaceOnUse" x1="-63.6822" y1="317.2794" x2="741.5826" y2="317.2794">
			<stop  offset="0" style="stop-color:#FFF200"/>
			<stop  offset="0.6305" style="stop-color:#ED1C24"/>
			<stop  offset="1" style="stop-color:#2E3192"/>
		</linearGradient>
		<path fill="url(#SVGID_4_)" d="M477.1,412.3c27.2,5,54.5,8.4,81.7,8.8c0,12.6,0,25.2,0,37.9c-40.9-0.7-81.8-7.9-122.8-17.5
			c0-88.6,0-177.3,0-265.9c13.7,3.2,27.4,6.2,41.1,8.7C477.1,260.3,477.1,336.3,477.1,412.3z"/>
		<linearGradient id="SVGID_5_" gradientUnits="userSpaceOnUse" x1="-83.4769" y1="315.7761" x2="721.7875" y2="315.7761">
			<stop  offset="0" style="stop-color:#FFF200"/>
			<stop  offset="0.6305" style="stop-color:#ED1C24"/>
			<stop  offset="1" style="stop-color:#2E3192"/>
		</linearGradient>
		<path fill="url(#SVGID_5_)" d="M612.8,370.5c0,21.1,1.2,28.2,5.2,35.5c4.8,8,14.7,11.9,26.3,9c11.6-2.9,21.5-11.8,26.3-22.2
			c4.4-9.9,5.2-16.6,5.2-38.1c0-31.8,0-63.5,0-95.3c0-21.5-0.8-27.6-5.2-34.4c-4.8-7.1-14.7-9.3-26.3-6.5
			c-11.6,2.9-21.5,10.2-26.3,19.7c-4,8.6-5.2,15.9-5.2,37C612.8,307,612.8,338.8,612.8,370.5z M716.8,336.6
			c0,29.8-4.4,50.4-15.1,70.8c-12,22.5-31.9,40-57.4,46.3c-25.5,6.3-45.4-0.8-57.4-16.8c-10.8-14.5-15.1-32.5-15.1-62.4
			c0-32.3,0-64.6,0-96.9c0-29.9,4.4-47.8,15.1-63.6c12-17.5,31.9-27.9,57.4-34.2c25.5-6.4,45.4-6.3,57.4,4.7
			c10.8,9.9,15.1,25.2,15.1,55.2C716.8,272,716.8,304.3,716.8,336.6z"/>
	</g>
	<g>
		<linearGradient id="SVGID_6_" gradientUnits="userSpaceOnUse" x1="24.6156" y1="245.7908" x2="829.8802" y2="245.7908">
			<stop  offset="0" style="stop-color:#FFF200"/>
			<stop  offset="0.6305" style="stop-color:#ED1C24"/>
			<stop  offset="1" style="stop-color:#2E3192"/>
		</linearGradient>
		<path fill="url(#SVGID_6_)" d="M67.1,261.6c0,39.1,0,78.1,0,117.2c-13.7,5.1-27.4,11.3-41.1,18.9c0-88.6,0-177.3,0-265.9
			c13.7-7.5,27.4-13.8,41.1-18.9c0,36.9,0,73.9,0,110.8c19.5-7.3,39.1-12.2,58.6-15.2c0-36.9,0-73.9,0-110.8
			c13.7-2.1,27.4-3.3,41.1-3.7c0,88.6,0,177.3,0,265.9c-13.7,0.4-27.4,1.6-41.1,3.7c0-39.1,0-78.1,0-117.2
			C106.2,249.4,86.7,254.3,67.1,261.6z"/>
		<linearGradient id="SVGID_7_" gradientUnits="userSpaceOnUse" x1="-3.663" y1="235.4697" x2="801.6016" y2="235.4697">
			<stop  offset="0" style="stop-color:#FFF200"/>
			<stop  offset="0.6305" style="stop-color:#ED1C24"/>
			<stop  offset="1" style="stop-color:#2E3192"/>
		</linearGradient>
		<path fill="url(#SVGID_7_)" d="M305.9,149c-26.4-6.2-52.9-11.4-79.3-14.4c0,23.4,0,46.8,0,70.2c19.5,2.2,39.1,5.7,58.6,9.8
			c0,12.6,0,25.2,0,37.9c-19.5-4.1-39.1-7.5-58.6-9.8c0,27.4,0,54.7,0,82.1c26.4,3,52.9,8.2,79.3,14.4c0,12.6,0,25.2,0,37.9
			c-40.1-9.4-80.3-16.5-120.4-17.3c0-88.6,0-177.3,0-265.9c40.1,0.8,80.3,7.8,120.4,17.3C305.9,123.8,305.9,136.4,305.9,149z"/>
		<linearGradient id="SVGID_8_" gradientUnits="userSpaceOnUse" x1="-23.4581" y1="264.2118" x2="781.8066" y2="264.2118">
			<stop  offset="0" style="stop-color:#FFF200"/>
			<stop  offset="0.6305" style="stop-color:#ED1C24"/>
			<stop  offset="1" style="stop-color:#2E3192"/>
		</linearGradient>
		<path fill="url(#SVGID_8_)" d="M362.3,353.7c27.2,7.4,54.5,15.1,81.7,22c0,12.6,0,25.2,0,37.9c-40.9-10.3-81.8-22.6-122.8-32.8
			c0-88.6,0-177.3,0-265.9c13.7,3.4,27.4,7.1,41.1,10.8C362.3,201.7,362.3,277.7,362.3,353.7z"/>
		<linearGradient id="SVGID_9_" gradientUnits="userSpaceOnUse" x1="-37.5975" y1="293.8082" x2="767.6674" y2="293.8082">
			<stop  offset="0" style="stop-color:#FFF200"/>
			<stop  offset="0.6305" style="stop-color:#ED1C24"/>
			<stop  offset="1" style="stop-color:#2E3192"/>
		</linearGradient>
		<path fill="url(#SVGID_9_)" d="M503.2,388.8c27.2,5,54.5,8.4,81.7,8.8c0,12.6,0,25.2,0,37.9c-40.9-0.7-81.8-7.9-122.8-17.5
			c0-88.6,0-177.3,0-265.9c13.7,3.2,27.4,6.2,41.1,8.7C503.2,236.8,503.2,312.8,503.2,388.8z"/>
		<linearGradient id="SVGID_10_" gradientUnits="userSpaceOnUse" x1="-57.3921" y1="292.3048" x2="747.8723" y2="292.3048">
			<stop  offset="0" style="stop-color:#FFF200"/>
			<stop  offset="0.6305" style="stop-color:#ED1C24"/>
			<stop  offset="1" style="stop-color:#2E3192"/>
		</linearGradient>
		<path fill="url(#SVGID_10_)" d="M638.8,347c0,21.1,1.2,28.2,5.2,35.5c4.8,8,14.7,11.9,26.3,9c11.6-2.9,21.6-11.7,26.3-22.2
			c4.4-9.9,5.2-16.6,5.2-38.1c0-31.8,0-63.5,0-95.3c0-21.5-0.7-27.6-5.2-34.4c-4.7-7.1-14.7-9.3-26.3-6.5
			c-11.6,2.9-21.5,10.2-26.3,19.7c-4,8.6-5.2,15.9-5.2,37C638.8,283.5,638.8,315.3,638.8,347z M742.9,313.1
			c0,29.8-4.4,50.4-15.1,70.8c-12,22.5-31.9,40-57.4,46.3c-25.5,6.3-45.4-0.8-57.4-16.8c-10.8-14.5-15.1-32.5-15.1-62.4
			c0-32.3,0-64.6,0-96.9c0-29.9,4.4-47.8,15.1-63.6c12-17.5,31.9-27.9,57.4-34.2c25.5-6.4,45.4-6.3,57.4,4.7
			c10.8,9.9,15.1,25.2,15.1,55.2C742.9,248.5,742.9,280.8,742.9,313.1z"/>
	</g>
	<g>
		<linearGradient id="SVGID_11_" gradientUnits="userSpaceOnUse" x1="50.7004" y1="222.3196" x2="855.965" y2="222.3196">
			<stop  offset="0" style="stop-color:#FFF200"/>
			<stop  offset="0.6305" style="stop-color:#ED1C24"/>
			<stop  offset="1" style="stop-color:#2E3192"/>
		</linearGradient>
		<path fill="url(#SVGID_11_)" d="M93.2,238.1c0,39.1,0,78.1,0,117.2c-13.7,5.1-27.4,11.3-41.1,18.9c0-88.6,0-177.3,0-265.9
			c13.7-7.5,27.4-13.8,41.1-18.9c0,36.9,0,73.9,0,110.8c19.5-7.3,39.1-12.2,58.6-15.2c0-36.9,0-73.9,0-110.8
			c13.7-2.1,27.4-3.3,41.1-3.7c0,88.6,0,177.3,0,265.9c-13.7,0.4-27.4,1.6-41.1,3.7c0-39.1,0-78.1,0-117.2
			C132.3,225.9,112.8,230.8,93.2,238.1z"/>
		<linearGradient id="SVGID_12_" gradientUnits="userSpaceOnUse" x1="22.4218" y1="211.9984" x2="827.6865" y2="211.9984">
			<stop  offset="0" style="stop-color:#FFF200"/>
			<stop  offset="0.6305" style="stop-color:#ED1C24"/>
			<stop  offset="1" style="stop-color:#2E3192"/>
		</linearGradient>
		<path fill="url(#SVGID_12_)" d="M332,125.6c-26.4-6.2-52.9-11.4-79.3-14.4c0,23.4,0,46.8,0,70.2c19.5,2.2,39.1,5.7,58.6,9.8
			c0,12.6,0,25.2,0,37.9c-19.5-4.1-39.1-7.5-58.6-9.8c0,27.4,0,54.7,0,82.1c26.4,3,52.9,8.2,79.3,14.4c0,12.6,0,25.2,0,37.9
			c-40.1-9.4-80.3-16.5-120.4-17.3c0-88.6,0-177.3,0-265.9c40.1,0.8,80.3,7.8,120.4,17.3C332,100.3,332,113,332,125.6z"/>
		<linearGradient id="SVGID_13_" gradientUnits="userSpaceOnUse" x1="2.6268" y1="240.7406" x2="807.8914" y2="240.7406">
			<stop  offset="0" style="stop-color:#FFF200"/>
			<stop  offset="0.6305" style="stop-color:#ED1C24"/>
			<stop  offset="1" style="stop-color:#2E3192"/>
		</linearGradient>
		<path fill="url(#SVGID_13_)" d="M388.3,330.2c27.2,7.4,54.5,15.1,81.7,22c0,12.6,0,25.2,0,37.9c-40.9-10.3-81.8-22.6-122.8-32.8
			c0-88.6,0-177.3,0-265.9c13.7,3.4,27.4,7.1,41.1,10.8C388.3,178.2,388.3,254.2,388.3,330.2z"/>
		<linearGradient id="SVGID_14_" gradientUnits="userSpaceOnUse" x1="-11.5127" y1="270.3369" x2="793.7522" y2="270.3369">
			<stop  offset="0" style="stop-color:#FFF200"/>
			<stop  offset="0.6305" style="stop-color:#ED1C24"/>
			<stop  offset="1" style="stop-color:#2E3192"/>
		</linearGradient>
		<path fill="url(#SVGID_14_)" d="M529.3,365.4c27.2,5,54.5,8.4,81.7,8.8c0,12.6,0,25.2,0,37.9c-40.9-0.7-81.8-7.9-122.8-17.5
			c0-88.6,0-177.3,0-265.9c13.7,3.2,27.4,6.2,41.1,8.7C529.3,213.3,529.3,289.4,529.3,365.4z"/>
		<linearGradient id="SVGID_15_" gradientUnits="userSpaceOnUse" x1="-31.3073" y1="268.8336" x2="773.9571" y2="268.8336">
			<stop  offset="0" style="stop-color:#FFF200"/>
			<stop  offset="0.6305" style="stop-color:#ED1C24"/>
			<stop  offset="1" style="stop-color:#2E3192"/>
		</linearGradient>
		<path fill="url(#SVGID_15_)" d="M664.9,323.6c0,21.1,1.2,28.2,5.2,35.5c4.8,8,14.7,11.9,26.3,9c11.6-2.9,21.6-11.7,26.3-22.2
			c4.4-9.9,5.2-16.6,5.2-38.1c0-31.8,0-63.5,0-95.3c0-21.5-0.7-27.6-5.2-34.4c-4.7-7.1-14.7-9.3-26.3-6.5
			c-11.6,2.9-21.5,10.2-26.3,19.7c-4,8.6-5.2,15.9-5.2,37C664.9,260.1,664.9,291.8,664.9,323.6z M769,289.6
			c0,29.8-4.4,50.4-15.1,70.8c-12,22.5-31.9,40-57.4,46.3c-25.5,6.3-45.4-0.8-57.4-16.8c-10.8-14.5-15.1-32.5-15.1-62.4
			c0-32.3,0-64.6,0-96.9c0-29.9,4.4-47.8,15.1-63.6c12-17.5,31.9-27.9,57.4-34.2c25.5-6.4,45.4-6.3,57.4,4.7
			c10.8,9.9,15.1,25.2,15.1,55.2C769,225.1,769,257.4,769,289.6z"/>
	</g>
	<g>
		<linearGradient id="SVGID_16_" gradientUnits="userSpaceOnUse" x1="76.7852" y1="198.8484" x2="882.0498" y2="198.8484">
			<stop  offset="0" style="stop-color:#FFF200"/>
			<stop  offset="0.6305" style="stop-color:#ED1C24"/>
			<stop  offset="1" style="stop-color:#2E3192"/>
		</linearGradient>
		<path fill="url(#SVGID_16_)" d="M119.3,214.6c0,39.1,0,78.1,0,117.2c-13.7,5.1-27.4,11.3-41.1,18.9c0-88.6,0-177.3,0-265.9
			C91.9,77.3,105.6,71,119.3,66c0,36.9,0,73.9,0,110.8c19.5-7.3,39.1-12.2,58.6-15.2c0-36.9,0-73.9,0-110.8
			c13.7-2.1,27.4-3.3,41.1-3.7c0,88.6,0,177.3,0,265.9c-13.7,0.4-27.4,1.6-41.1,3.7c0-39.1,0-78.1,0-117.2
			C158.4,202.4,138.8,207.4,119.3,214.6z"/>
		<linearGradient id="SVGID_17_" gradientUnits="userSpaceOnUse" x1="48.5066" y1="188.5272" x2="853.7713" y2="188.5272">
			<stop  offset="0" style="stop-color:#FFF200"/>
			<stop  offset="0.6305" style="stop-color:#ED1C24"/>
			<stop  offset="1" style="stop-color:#2E3192"/>
		</linearGradient>
		<path fill="url(#SVGID_17_)" d="M358.1,102.1c-26.4-6.2-52.9-11.4-79.3-14.4c0,23.4,0,46.8,0,70.2c19.5,2.2,39.1,5.7,58.6,9.8
			c0,12.6,0,25.2,0,37.9c-19.5-4.1-39.1-7.5-58.6-9.8c0,27.4,0,54.7,0,82.1c26.4,3,52.9,8.2,79.3,14.4c0,12.6,0,25.2,0,37.9
			c-40.1-9.4-80.3-16.5-120.4-17.3c0-88.6,0-177.3,0-265.9c40.1,0.8,80.3,7.8,120.4,17.3C358.1,76.9,358.1,89.5,358.1,102.1z"/>
		<linearGradient id="SVGID_18_" gradientUnits="userSpaceOnUse" x1="28.7117" y1="217.2693" x2="833.9761" y2="217.2693">
			<stop  offset="0" style="stop-color:#FFF200"/>
			<stop  offset="0.6305" style="stop-color:#ED1C24"/>
			<stop  offset="1" style="stop-color:#2E3192"/>
		</linearGradient>
		<path fill="url(#SVGID_18_)" d="M414.4,306.7c27.2,7.4,54.5,15.1,81.7,22c0,12.6,0,25.2,0,37.9c-40.9-10.3-81.8-22.6-122.8-32.8
			c0-88.6,0-177.3,0-265.9c13.7,3.4,27.4,7.1,41.1,10.8C414.4,154.7,414.4,230.7,414.4,306.7z"/>
		<linearGradient id="SVGID_19_" gradientUnits="userSpaceOnUse" x1="14.572" y1="246.8657" x2="819.837" y2="246.8657">
			<stop  offset="0" style="stop-color:#FFF200"/>
			<stop  offset="0.6305" style="stop-color:#ED1C24"/>
			<stop  offset="1" style="stop-color:#2E3192"/>
		</linearGradient>
		<path fill="url(#SVGID_19_)" d="M555.4,341.9c27.2,5,54.5,8.4,81.7,8.8c0,12.6,0,25.2,0,37.9c-40.9-0.7-81.8-7.9-122.8-17.5
			c0-88.6,0-177.3,0-265.9c13.7,3.2,27.4,6.2,41.1,8.7C555.4,189.9,555.4,265.9,555.4,341.9z"/>
		<linearGradient id="SVGID_20_" gradientUnits="userSpaceOnUse" x1="-5.2225" y1="245.3624" x2="800.0419" y2="245.3624">
			<stop  offset="0" style="stop-color:#FFF200"/>
			<stop  offset="0.6305" style="stop-color:#ED1C24"/>
			<stop  offset="1" style="stop-color:#2E3192"/>
		</linearGradient>
		<path fill="url(#SVGID_20_)" d="M691,300.1c0,21.1,1.2,28.2,5.2,35.5c4.8,8,14.7,11.9,26.3,9c11.6-2.9,21.6-11.7,26.3-22.2
			c4.4-9.9,5.2-16.6,5.2-38.1c0-31.8,0-63.5,0-95.3c0-21.5-0.7-27.6-5.2-34.4c-4.7-7.1-14.7-9.3-26.3-6.5
			c-11.6,2.9-21.5,10.2-26.3,19.7c-4,8.6-5.2,15.9-5.2,37C691,236.6,691,268.3,691,300.1z M795,266.2c0,29.8-4.4,50.4-15.1,70.8
			c-12,22.5-31.9,40-57.4,46.3c-25.5,6.3-45.4-0.8-57.4-16.8c-10.8-14.5-15.1-32.5-15.1-62.4c0-32.3,0-64.6,0-96.9
			c0-29.9,4.4-47.8,15.1-63.6c12-17.5,31.9-27.9,57.4-34.2c25.5-6.4,45.4-6.3,57.4,4.7c10.8,9.9,15.1,25.2,15.1,55.2
			C795,201.6,795,233.9,795,266.2z"/>
	</g>
	<g>
		<linearGradient id="SVGID_21_" gradientUnits="userSpaceOnUse" x1="102.87" y1="175.3771" x2="908.1346" y2="175.3771">
			<stop  offset="0" style="stop-color:#FFF200"/>
			<stop  offset="0.6305" style="stop-color:#ED1C24"/>
			<stop  offset="1" style="stop-color:#2E3192"/>
		</linearGradient>
		<path fill="url(#SVGID_21_)" d="M145.4,191.2c0,39.1,0,78.1,0,117.2c-13.7,5.1-27.4,11.3-41.1,18.9c0-88.6,0-177.3,0-265.9
			c13.7-7.5,27.4-13.8,41.1-18.9c0,36.9,0,73.9,0,110.8c19.5-7.3,39.1-12.2,58.6-15.2c0-36.9,0-73.9,0-110.8
			c13.7-2.1,27.4-3.3,41.1-3.7c0,88.6,0,177.3,0,265.9c-13.7,0.4-27.4,1.6-41.1,3.7c0-39.1,0-78.1,0-117.2
			C184.5,179,164.9,183.9,145.4,191.2z"/>
		<linearGradient id="SVGID_22_" gradientUnits="userSpaceOnUse" x1="74.5914" y1="165.056" x2="879.8561" y2="165.056">
			<stop  offset="0" style="stop-color:#FFF200"/>
			<stop  offset="0.6305" style="stop-color:#ED1C24"/>
			<stop  offset="1" style="stop-color:#2E3192"/>
		</linearGradient>
		<path fill="url(#SVGID_22_)" d="M384.2,78.6c-26.4-6.2-52.9-11.4-79.3-14.4c0,23.4,0,46.8,0,70.2c19.5,2.2,39.1,5.7,58.6,9.8
			c0,12.6,0,25.2,0,37.9c-19.5-4.1-39.1-7.5-58.6-9.8c0,27.4,0,54.7,0,82.1c26.4,3,52.9,8.2,79.3,14.4c0,12.6,0,25.2,0,37.9
			c-40.1-9.4-80.3-16.5-120.4-17.3c0-88.6,0-177.3,0-265.9c40.1,0.8,80.3,7.8,120.4,17.3C384.2,53.4,384.2,66,384.2,78.6z"/>
		<linearGradient id="SVGID_23_" gradientUnits="userSpaceOnUse" x1="54.7966" y1="193.7981" x2="860.0608" y2="193.7981">
			<stop  offset="0" style="stop-color:#FFF200"/>
			<stop  offset="0.6305" style="stop-color:#ED1C24"/>
			<stop  offset="1" style="stop-color:#2E3192"/>
		</linearGradient>
		<path fill="url(#SVGID_23_)" d="M440.5,283.3c27.2,7.4,54.5,15.1,81.7,22c0,12.6,0,25.2,0,37.9c-40.9-10.3-81.8-22.6-122.8-32.8
			c0-88.6,0-177.3,0-265.9c13.7,3.4,27.4,7.1,41.1,10.8C440.5,131.2,440.5,207.3,440.5,283.3z"/>
		<linearGradient id="SVGID_24_" gradientUnits="userSpaceOnUse" x1="40.6568" y1="223.3945" x2="845.9218" y2="223.3945">
			<stop  offset="0" style="stop-color:#FFF200"/>
			<stop  offset="0.6305" style="stop-color:#ED1C24"/>
			<stop  offset="1" style="stop-color:#2E3192"/>
		</linearGradient>
		<path fill="url(#SVGID_24_)" d="M581.4,318.4c27.2,5,54.5,8.4,81.7,8.8c0,12.6,0,25.2,0,37.9c-40.9-0.7-81.8-7.9-122.8-17.5
			c0-88.6,0-177.3,0-265.9c13.7,3.2,27.4,6.2,41.1,8.7C581.4,166.4,581.4,242.4,581.4,318.4z"/>
		<linearGradient id="SVGID_25_" gradientUnits="userSpaceOnUse" x1="20.8623" y1="221.8911" x2="826.1266" y2="221.8911">
			<stop  offset="0" style="stop-color:#FFF200"/>
			<stop  offset="0.6305" style="stop-color:#ED1C24"/>
			<stop  offset="1" style="stop-color:#2E3192"/>
		</linearGradient>
		<path fill="url(#SVGID_25_)" d="M717.1,276.6c0,21.1,1.2,28.2,5.2,35.5c4.8,8,14.7,11.9,26.3,9c11.6-2.9,21.6-11.7,26.3-22.2
			c4.4-9.9,5.2-16.6,5.2-38.1c0-31.8,0-63.5,0-95.3c0-21.5-0.7-27.6-5.2-34.4c-4.7-7.1-14.7-9.3-26.3-6.5
			c-11.6,2.9-21.5,10.2-26.3,19.7c-4,8.6-5.2,15.9-5.2,37C717.1,213.1,717.1,244.9,717.1,276.6z M821.1,242.7
			c0,29.8-4.4,50.4-15.1,70.8c-12,22.5-31.9,40-57.4,46.3c-25.5,6.3-45.4-0.8-57.4-16.8c-10.8-14.5-15.1-32.5-15.1-62.4
			c0-32.3,0-64.6,0-96.9c0-29.9,4.4-47.8,15.1-63.6c12-17.5,31.9-27.9,57.4-34.2c25.5-6.4,45.4-6.3,57.4,4.7
			c10.8,9.9,15.1,25.2,15.1,55.2C821.1,178.1,821.1,210.4,821.1,242.7z"/>
	</g>
	<g>
		<linearGradient id="SVGID_26_" gradientUnits="userSpaceOnUse" x1="128.9548" y1="151.9059" x2="934.2194" y2="151.9059">
			<stop  offset="0" style="stop-color:#FFF200"/>
			<stop  offset="0.6305" style="stop-color:#ED1C24"/>
			<stop  offset="1" style="stop-color:#2E3192"/>
		</linearGradient>
		<path fill="url(#SVGID_26_)" d="M171.5,167.7c0,39.1,0,78.1,0,117.2c-13.7,5.1-27.4,11.3-41.1,18.9c0-88.6,0-177.3,0-265.9
			c13.7-7.5,27.4-13.8,41.1-18.9c0,36.9,0,73.9,0,110.8c19.5-7.3,39.1-12.2,58.6-15.2c0-36.9,0-73.9,0-110.8
			c13.7-2.1,27.4-3.3,41.1-3.7c0,88.6,0,177.3,0,265.9c-13.7,0.4-27.4,1.6-41.1,3.7c0-39.1,0-78.1,0-117.2
			C210.5,155.5,191,160.4,171.5,167.7z"/>
		<linearGradient id="SVGID_27_" gradientUnits="userSpaceOnUse" x1="100.6762" y1="141.5847" x2="905.941" y2="141.5847">
			<stop  offset="0" style="stop-color:#FFF200"/>
			<stop  offset="0.6305" style="stop-color:#ED1C24"/>
			<stop  offset="1" style="stop-color:#2E3192"/>
		</linearGradient>
		<path fill="url(#SVGID_27_)" d="M410.3,55.2c-26.4-6.2-52.9-11.4-79.3-14.4c0,23.4,0,46.8,0,70.2c19.5,2.2,39.1,5.7,58.6,9.8
			c0,12.6,0,25.2,0,37.9c-19.5-4.1-39.1-7.5-58.6-9.8c0,27.4,0,54.7,0,82.1c26.4,3,52.9,8.2,79.3,14.4c0,12.6,0,25.2,0,37.9
			c-40.1-9.4-80.3-16.5-120.4-17.3c0-88.6,0-177.3,0-265.9c40.1,0.8,80.3,7.8,120.4,17.3C410.3,29.9,410.3,42.5,410.3,55.2z"/>
		<linearGradient id="SVGID_28_" gradientUnits="userSpaceOnUse" x1="80.8814" y1="170.3269" x2="886.1455" y2="170.3269">
			<stop  offset="0" style="stop-color:#FFF200"/>
			<stop  offset="0.6305" style="stop-color:#ED1C24"/>
			<stop  offset="1" style="stop-color:#2E3192"/>
		</linearGradient>
		<path fill="url(#SVGID_28_)" d="M466.6,259.8c27.2,7.4,54.5,15.1,81.7,22c0,12.6,0,25.2,0,37.9c-40.9-10.3-81.8-22.6-122.8-32.8
			c0-88.6,0-177.3,0-265.9c13.7,3.4,27.4,7.1,41.1,10.8C466.6,107.8,466.6,183.8,466.6,259.8z"/>
		<linearGradient id="SVGID_29_" gradientUnits="userSpaceOnUse" x1="66.7416" y1="199.9232" x2="872.0066" y2="199.9232">
			<stop  offset="0" style="stop-color:#FFF200"/>
			<stop  offset="0.6305" style="stop-color:#ED1C24"/>
			<stop  offset="1" style="stop-color:#2E3192"/>
		</linearGradient>
		<path fill="url(#SVGID_29_)" d="M607.5,294.9c27.2,5,54.5,8.4,81.7,8.8c0,12.6,0,25.2,0,37.9c-40.9-0.7-81.8-7.9-122.8-17.5
			c0-88.6,0-177.3,0-265.9c13.7,3.2,27.4,6.2,41.1,8.7C607.5,142.9,607.5,218.9,607.5,294.9z"/>
		<linearGradient id="SVGID_30_" gradientUnits="userSpaceOnUse" x1="46.9471" y1="198.4199" x2="852.2115" y2="198.4199">
			<stop  offset="0" style="stop-color:#FFF200"/>
			<stop  offset="0.6305" style="stop-color:#ED1C24"/>
			<stop  offset="1" style="stop-color:#2E3192"/>
		</linearGradient>
		<path fill="url(#SVGID_30_)" d="M743.2,253.2c0,21.1,1.2,28.2,5.2,35.5c4.8,8,14.7,11.9,26.3,9c11.6-2.9,21.5-11.8,26.3-22.2
			c4.4-9.9,5.2-16.6,5.2-38.1c0-31.8,0-63.5,0-95.3c0-21.5-0.8-27.6-5.2-34.4c-4.8-7.1-14.7-9.3-26.3-6.5
			c-11.6,2.9-21.5,10.2-26.3,19.7c-4,8.6-5.2,15.9-5.2,37C743.2,189.6,743.2,221.4,743.2,253.2z M847.2,219.2
			c0,29.8-4.4,50.4-15.1,70.8c-12,22.5-31.9,40-57.4,46.3c-25.5,6.3-45.4-0.8-57.4-16.8c-10.8-14.5-15.1-32.5-15.1-62.4
			c0-32.3,0-64.6,0-96.9c0-29.9,4.4-47.8,15.1-63.6c12-17.5,31.9-27.9,57.4-34.2c25.5-6.4,45.4-6.3,57.4,4.7
			c10.8,9.9,15.1,25.2,15.1,55.2C847.2,154.7,847.2,186.9,847.2,219.2z"/>
	</g>
</g>
</svg>
